<svg viewBox="85 25 630 485" xmlns="http://www.w3.org/2000/svg">
  <defs>
    <marker id="arrowhead" markerWidth="10" markerHeight="7" refX="9" refY="3.5" orient="auto">
      <path d="M 0 0 L 10 3.5 L 0 7" fill="none" stroke="#d4607e" stroke-width="1"/>
    </marker>
  </defs>

  <!-- MUSIC APP (top-left) -->
  <circle cx="210" cy="150" r="105" fill="#ff3355" fill-opacity="0.04" stroke="#9a5a70" stroke-width="1.5"/>

  <!-- Identity Icon -->
  <circle cx="155" cy="105" r="8" fill="none" stroke="#d4607e" stroke-width="1.5"/>
  <path d="M 143 125 Q 143 115 155 115 Q 167 115 167 125 L 165 125 Q 165 118 155 118 Q 145 118 145 125 Z" fill="none" stroke="#d4607e" stroke-width="1.5"/>
  <text x="155" y="145" text-anchor="middle" font-family="Arial, sans-serif" font-size="12" font-weight="bold" fill="#d4607e">Your Identity</text>

  <!-- Data Icon -->
  <ellipse cx="260" cy="100" rx="12" ry="4" fill="none" stroke="#d4607e" stroke-width="1.5"/>
  <line x1="248" y1="100" x2="248" y2="120" stroke="#d4607e" stroke-width="1.5"/>
  <line x1="272" y1="100" x2="272" y2="120" stroke="#d4607e" stroke-width="1.5"/>
  <path d="M 248 120 A 12 4 0 0 0 272 120" fill="none" stroke="#d4607e" stroke-width="1.5"/>
  <path d="M 250 110 A 10 3 0 0 0 270 110" fill="none" stroke="#d4607e" stroke-width="1"/>
  <text x="260" y="140" text-anchor="middle" font-family="Arial, sans-serif" font-size="12" font-weight="bold" fill="#d4607e">Your Data</text>

  <!-- UI Icon - Phone -->
  <rect x="200" y="175" width="20" height="35" fill="none" stroke="#d4607e" stroke-width="1.5" rx="3"/>
  <rect x="202" y="178" width="16" height="24" fill="none" stroke="#d4607e" stroke-width="0.75"/>
  <line x1="204" y1="184" x2="216" y2="184" stroke="#d4607e" stroke-width="0.75"/>
  <line x1="204" y1="187" x2="214" y2="187" stroke="#d4607e" stroke-width="0.75"/>
  <line x1="204" y1="190" x2="218" y2="190" stroke="#d4607e" stroke-width="0.75"/>
  <line x1="204" y1="193" x2="212" y2="193" stroke="#d4607e" stroke-width="0.75"/>
  <text x="210" y="225" text-anchor="middle" font-family="Arial, sans-serif" font-size="12" font-weight="bold" fill="#d4607e">User Interface</text>

  <!-- Arrows -->
  <path d="M 195 190 Q 178 165 160 150" fill="none" stroke="#d4607e" stroke-width="2" marker-end="url(#arrowhead)"/>
  <path d="M 225 190 Q 240 165 255 145" fill="none" stroke="#d4607e" stroke-width="2" marker-end="url(#arrowhead)"/>

  <text x="210" y="280" text-anchor="middle" font-family="Arial, sans-serif" font-size="16" font-weight="bold" fill="#d4607e">Music App</text>

  <!-- SOCIAL APP (top-right) -->
  <circle cx="590" cy="150" r="105" fill="#ff3355" fill-opacity="0.04" stroke="#9a5a70" stroke-width="1.5"/>

  <!-- Identity Icon -->
  <circle cx="535" cy="105" r="8" fill="none" stroke="#d4607e" stroke-width="1.5"/>
  <path d="M 523 125 Q 523 115 535 115 Q 547 115 547 125 L 545 125 Q 545 118 535 118 Q 525 118 525 125 Z" fill="none" stroke="#d4607e" stroke-width="1.5"/>
  <text x="535" y="145" text-anchor="middle" font-family="Arial, sans-serif" font-size="12" font-weight="bold" fill="#d4607e">Your Identity</text>

  <!-- Data Icon -->
  <ellipse cx="640" cy="100" rx="12" ry="4" fill="none" stroke="#d4607e" stroke-width="1.5"/>
  <line x1="628" y1="100" x2="628" y2="120" stroke="#d4607e" stroke-width="1.5"/>
  <line x1="652" y1="100" x2="652" y2="120" stroke="#d4607e" stroke-width="1.5"/>
  <path d="M 628 120 A 12 4 0 0 0 652 120" fill="none" stroke="#d4607e" stroke-width="1.5"/>
  <path d="M 630 110 A 10 3 0 0 0 650 110" fill="none" stroke="#d4607e" stroke-width="1"/>
  <text x="640" y="140" text-anchor="middle" font-family="Arial, sans-serif" font-size="12" font-weight="bold" fill="#d4607e">Your Data</text>

  <!-- UI Icon - Computer -->
  <rect x="570" y="185" width="40" height="25" fill="none" stroke="#d4607e" stroke-width="1.5" rx="2"/>
  <rect x="573" y="188" width="34" height="16" fill="none" stroke="#d4607e" stroke-width="0.75"/>
  <line x1="575" y1="195" x2="595" y2="195" stroke="#d4607e" stroke-width="0.75"/>
  <line x1="575" y1="198" x2="590" y2="198" stroke="#d4607e" stroke-width="0.75"/>
  <line x1="575" y1="201" x2="600" y2="201" stroke="#d4607e" stroke-width="0.75"/>
  <text x="590" y="225" text-anchor="middle" font-family="Arial, sans-serif" font-size="12" font-weight="bold" fill="#d4607e">User Interface</text>

  <!-- Arrows -->
  <path d="M 575 200 Q 558 175 540 150" fill="none" stroke="#d4607e" stroke-width="2" marker-end="url(#arrowhead)"/>
  <path d="M 605 200 Q 620 175 635 145" fill="none" stroke="#d4607e" stroke-width="2" marker-end="url(#arrowhead)"/>

  <text x="590" y="280" text-anchor="middle" font-family="Arial, sans-serif" font-size="16" font-weight="bold" fill="#d4607e">Social App</text>

  <!-- PODCAST APP (bottom-center) -->
  <circle cx="400" cy="360" r="105" fill="#ff3355" fill-opacity="0.04" stroke="#9a5a70" stroke-width="1.5"/>

  <!-- Identity Icon -->
  <circle cx="345" cy="315" r="8" fill="none" stroke="#d4607e" stroke-width="1.5"/>
  <path d="M 333 335 Q 333 325 345 325 Q 357 325 357 335 L 355 335 Q 355 328 345 328 Q 335 328 335 335 Z" fill="none" stroke="#d4607e" stroke-width="1.5"/>
  <text x="345" y="355" text-anchor="middle" font-family="Arial, sans-serif" font-size="12" font-weight="bold" fill="#d4607e">Your Identity</text>

  <!-- Data Icon -->
  <ellipse cx="450" cy="310" rx="12" ry="4" fill="none" stroke="#d4607e" stroke-width="1.5"/>
  <line x1="438" y1="310" x2="438" y2="330" stroke="#d4607e" stroke-width="1.5"/>
  <line x1="462" y1="310" x2="462" y2="330" stroke="#d4607e" stroke-width="1.5"/>
  <path d="M 438 330 A 12 4 0 0 0 462 330" fill="none" stroke="#d4607e" stroke-width="1.5"/>
  <path d="M 440 320 A 10 3 0 0 0 460 320" fill="none" stroke="#d4607e" stroke-width="1"/>
  <text x="450" y="350" text-anchor="middle" font-family="Arial, sans-serif" font-size="12" font-weight="bold" fill="#d4607e">Your Data</text>

  <!-- UI Icon - Phone -->
  <rect x="390" y="385" width="20" height="35" fill="none" stroke="#d4607e" stroke-width="1.5" rx="3"/>
  <rect x="392" y="388" width="16" height="24" fill="none" stroke="#d4607e" stroke-width="0.75"/>
  <line x1="394" y1="394" x2="406" y2="394" stroke="#d4607e" stroke-width="0.75"/>
  <line x1="394" y1="397" x2="404" y2="397" stroke="#d4607e" stroke-width="0.75"/>
  <line x1="394" y1="400" x2="408" y2="400" stroke="#d4607e" stroke-width="0.75"/>
  <line x1="394" y1="403" x2="402" y2="403" stroke="#d4607e" stroke-width="0.75"/>
  <text x="400" y="435" text-anchor="middle" font-family="Arial, sans-serif" font-size="12" font-weight="bold" fill="#d4607e">User Interface</text>

  <!-- Arrows -->
  <path d="M 385 400 Q 368 375 350 360" fill="none" stroke="#d4607e" stroke-width="2" marker-end="url(#arrowhead)"/>
  <path d="M 415 400 Q 430 375 445 355" fill="none" stroke="#d4607e" stroke-width="2" marker-end="url(#arrowhead)"/>

  <text x="400" y="490" text-anchor="middle" font-family="Arial, sans-serif" font-size="16" font-weight="bold" fill="#d4607e">Podcast App</text>
</svg>
